<svg id="Laag_1" data-name="Laag 1" xmlns="http://www.w3.org/2000/svg" viewBox="0 0 75.54 76.77"><defs><style>.cls-1{fill:#a9a9a9;}</style></defs><title>Tekengebied 4</title><path class="cls-1" d="M37,29.47H17.85c-.45,0-.45-2.11,0-2.11h2.59a6.63,6.63,0,0,0,3.11-1.3.56.56,0,0,1,.38-.17h7.28a.91.91,0,0,1,.63.3,8,8,0,0,0,2.82,1.17H37C37.4,27.36,37.4,29.47,37,29.47Z"/><path class="cls-1" d="M18.3,30.16H36.49a0,0,0,0,1,0,0V51.29a2.29,2.29,0,0,1-2.29,2.29H20.6a2.29,2.29,0,0,1-2.29-2.29V30.16A0,0,0,0,1,18.3,30.16Z"/><rect class="cls-1" x="17.51" y="27.29" width="19.78" height="2.27"/></svg>