<svg id="Laag_1" data-name="Laag 1" xmlns="http://www.w3.org/2000/svg" viewBox="0 0 56.09 51.25"><defs><style>.cls-1{fill:#1d1d1b;}</style></defs><title>Tekengebied 3</title><path class="cls-1" d="M52.17,20.72c0,5.6-5.2,10.14-11.61,10.14l-24.4-.05H13.91c-5.25-.45-9.34-4-9.34-8.32,0-4.63,4.69-8.37,10.47-8.37a12.86,12.86,0,0,1,3.14.38A10.37,10.37,0,0,1,18,12.56a9.94,9.94,0,0,1,19.73-1.67,13.22,13.22,0,0,1,2.84-.31C47,10.58,52.17,15.12,52.17,20.72Z"/><polygon class="cls-1" points="26.25 29.44 22 37.41 31.52 37.93 25.22 49.25 28.37 39.86 17.5 39.34 22.78 28.54 26.25 29.44"/></svg>