<svg id="Laag_1" data-name="Laag 1" xmlns="http://www.w3.org/2000/svg" viewBox="0 0 41.72 43.27"><defs><style>.cls-1{fill:#1d1d1b;}</style></defs><title>Tekengebied 1 kopie</title><circle class="cls-1" cx="21.99" cy="21.45" r="11.39"/><ellipse class="cls-1" cx="34.88" cy="12.27" rx="3.18" ry="1.98" transform="translate(0.3 25.37) rotate(-40.13)"/><ellipse class="cls-1" cx="9.23" cy="31.28" rx="3.18" ry="1.98" transform="translate(-17.99 13.31) rotate(-40.13)"/><ellipse class="cls-1" cx="35.17" cy="30.35" rx="1.98" ry="3.18" transform="translate(-8.99 44.78) rotate(-58.88)"/><ellipse class="cls-1" cx="8.81" cy="13.02" rx="1.98" ry="3.18" transform="translate(-6.89 13.84) rotate(-58.88)"/><ellipse class="cls-1" cx="37.16" cy="21.04" rx="3.18" ry="1.98" transform="translate(-1.95 3.9) rotate(-5.86)"/><ellipse class="cls-1" cx="5.67" cy="23.05" rx="3.18" ry="1.98" transform="translate(-2.32 0.7) rotate(-5.86)"/><ellipse class="cls-1" cx="22.24" cy="5.87" rx="1.98" ry="3.18" transform="translate(-0.09 0.37) rotate(-0.94)"/><ellipse class="cls-1" cx="21.55" cy="37.41" rx="1.98" ry="3.18" transform="translate(-0.61 0.36) rotate(-0.94)"/><ellipse class="cls-1" cx="29.29" cy="7.71" rx="3.18" ry="1.98" transform="translate(9.04 30.23) rotate(-62.78)"/><ellipse class="cls-1" cx="14.53" cy="35.35" rx="3.18" ry="1.98" transform="translate(-23.56 32.1) rotate(-62.78)"/><ellipse class="cls-1" cx="15.21" cy="7.18" rx="1.98" ry="3.18" transform="translate(-1.57 8.36) rotate(-29.29)"/><ellipse class="cls-1" cx="29.57" cy="35.26" rx="1.98" ry="3.18" transform="translate(-13.47 18.97) rotate(-29.29)"/></svg>